:SAMPLES-PER-SECOND 30
:FULLY-SPECIFIED
:DEGREES
454
root  -53.84 39.4511 -17.4708 -1.112 -13.3396 0.0566864
RightUpLeg  -16.9832 -19.8968 -12.2795
RightLeg  13.7612 -1.00146 3.32938
RightFoot  6.38622 -1.45632 9.60418
RightToes  0.00048216 0.542163 -0.142577
Spine  49.1315 -4.974 10.4038
Spine1  9.96433 0.338182 -2.05197
HEad  -15.8071 24.1821 -19.6619
LeftShoulder1  11.4225 -18.2384 -45.7944
LeftArm  -17.7968 -4.69998 -20.9542
LeftForeArm  24.8656 -10.4499 -3.82001
LeftHand  -0.25398 0.0180481 5.50724
RightShoulder  6.29365 12.7208 32.8375
RightArm  2.57262 9.41364 25.841
RightForeArm  -21.9285 13.352 9.68373
RightHand  -4.21081 10.9102 -29.7764
LeftUpLeg  -21.2718 6.44919 9.60673
LeftLeg  30.9067 0.450878 0.634069
LeftFoot  -8.66141 0.125845 -3.16784
LeftToes  1.06246e-005 4.65855e-005 -8.185e-006
455
root  -52.7636 39.2167 -17.2047 -2.26894 -14.3286 -0.0177917
RightUpLeg  -15.7617 -19.1736 -14.1944
RightLeg  13.2214 -0.430765 3.06703
RightFoot  6.54776 -1.89719 12.2865
RightToes  0.00048216 0.542163 -0.142577
Spine  47.2698 -4.86757 10.4275
Spine1  10.2452 0.369247 -2.39813
HEad  -14.0429 26.2224 -19.6889
LeftShoulder1  11.2422 -18.1092 -45.3247
LeftArm  -17.1677 -3.53216 -20.7828
LeftForeArm  24.7317 -10.939 -3.95252
LeftHand  -0.25398 0.0180481 5.50724
RightShoulder  6.26608 12.4772 33.2564
RightArm  4.65234 3.73267 25.4614
RightForeArm  -25.1233 14.8276 9.30234
RightHand  -4.31218 11.1298 -30.074
LeftUpLeg  -19.5465 5.03705 9.34406
LeftLeg  31.1901 -0.0360749 0.324258
LeftFoot  -9.3334 0.12451 -3.9546
LeftToes  1.06246e-005 4.65855e-005 -8.185e-006
456
root  -51.5938 39.0225 -16.9074 -3.17128 -15.5386 -0.0075531
RightUpLeg  -13.9306 -18.114 -16.3916
RightLeg  10.8995 -0.394423 3.01796
RightFoot  7.0416 -2.5756 16.1173
RightToes  0.00048216 0.542163 -0.142577
Spine  45.511 -4.63399 9.91574
Spine1  10.4097 0.402139 -2.99379
HEad  -12.1074 28.4562 -19.6978
LeftShoulder1  11.0717 -17.9395 -44.9773
LeftArm  -16.6826 -2.34339 -20.6331
LeftForeArm  23.9019 -11.6696 -4.03432
LeftHand  -0.25398 0.0180481 5.50724
RightShoulder  6.1892 12.1759 33.5196
RightArm  6.6875 -1.84595 25.3898
RightForeArm  -27.3755 16.2634 8.81983
RightHand  -4.08581 10.5525 -29.5463
LeftUpLeg  -18.4261 6.25358 7.92106
LeftLeg  32.4609 0.00657276 0.360321
LeftFoot  -10.2898 0.106071 -4.79196
LeftToes  1.06246e-005 4.65855e-005 -8.185e-006
457
root  -50.3551 38.9174 -16.615 -4.10425 -16.8401 0.130844
RightUpLeg  -11.3834 -16.7115 -18.6692
RightLeg  7.11292 -0.872516 2.85334
RightFoot  6.95842 -3.06565 19.193
RightToes  0.00048216 0.542163 -0.142577
Spine  44.2866 -4.28969 8.70312
Spine1  10.2587 0.18129 -3.1887
HEad  -10.4593 31.1433 -19.8827
LeftShoulder1  10.8514 -17.5946 -44.7983
LeftArm  -16.3369 -1.00513 -20.4805
LeftForeArm  22.4427 -12.9286 -4.02571
LeftHand  -0.25398 0.0180481 5.50724
RightShoulder  6.1605 11.9731 33.8505
RightArm  8.40222 -6.96109 25.1917
RightForeArm  -28.521 17.6975 8.21927
RightHand  -3.51069 9.04235 -28.1079
LeftUpLeg  -17.6314 8.54437 5.88428
LeftLeg  33.6439 0.358742 0.618425
LeftFoot  -11.2703 0.0710449 -4.13653
LeftToes  1.06246e-005 4.65855e-005 -8.185e-006
458
root  -49.0779 38.8918 -16.3471 -4.85271 -18.173 0.302338
RightUpLeg  -9.18564 -15.8826 -20.348
RightLeg  3.32762 -1.97871 2.16328
RightFoot  5.26307 -2.75954 18.9489
RightToes  0.00048216 0.542163 -0.142577
Spine  43.1 -4.02457 7.445
Spine1  9.94888 -0.222779 -3.14976
HEad  -9.21855 33.7873 -19.8767
LeftShoulder1  10.5866 -17.101 -44.7537
LeftArm  -16.1378 0.153261 -20.0701
LeftForeArm  20.8412 -14.4145 -3.94758
LeftHand  -0.25398 0.0180481 5.50724
RightShoulder  6.30819 11.9554 34.8387
RightArm  9.07933 -11.4424 24.526
RightForeArm  -29.0244 19.0141 7.60121
RightHand  -2.89817 7.32714 -26.4178
LeftUpLeg  -17.2777 10.6936 3.69243
LeftLeg  34.3639 0.678811 0.864261
LeftFoot  -11.6701 0.0638864 -1.83561
LeftToes  1.06246e-005 4.65855e-005 -8.185e-006
459
root  -47.8095 38.8996 -16.11 -5.2571 -19.877 0.3647
RightUpLeg  -8.2779 -15.7874 -21.1424
RightLeg  1.21696 -4.25741 1.44823
RightFoot  2.79614 -1.90901 15.4479
RightToes  0.00048216 0.542163 -0.142577
Spine  41.7453 -3.93114 6.78371
Spine1  9.6892 -0.375699 -3.72083
HEad  -8.27904 36.1154 -19.9373
LeftShoulder1  10.3481 -16.5702 -44.9127
LeftArm  -16.1758 0.919454 -19.2339
LeftForeArm  19.1239 -15.7101 -3.87015
LeftHand  -0.25398 0.0180481 5.50724
RightShoulder  6.52621 12.0169 36.06
RightArm  7.79669 -15.2239 24.2081
RightForeArm  -28.8116 19.6788 7.21536
RightHand  -2.52563 6.23282 -25.2342
LeftUpLeg  -17.1242 12.8276 1.67608
LeftLeg  34.5674 0.949273 1.07043
LeftFoot  -11.6652 0.071909 0.648029
LeftToes  1.06246e-005 4.65855e-005 -8.185e-006
460
root  -46.5803 38.9473 -15.9203 -5.69279 -22.365 0.221497
RightUpLeg  -8.86094 -15.98 -21.0108
RightLeg  2.86359 -5.98718 1.09782
RightFoot  1.17509 -1.31238 12.0359
RightToes  0.00048216 0.542163 -0.142577
Spine  40.7089 -3.84407 6.68383
Spine1  9.57686 -0.0267692 -5.03946
HEad  -7.41955 37.8897 -20.3942
LeftShoulder1  10.2012 -16.1084 -45.3372
LeftArm  -16.5411 1.45896 -18.1862
LeftForeArm  16.9283 -16.6484 -3.83418
LeftHand  -0.25398 0.0180481 5.50724
RightShoulder  6.5892 12.0236 36.4374
RightArm  4.68757 -18.0104 25.3501
RightForeArm  -27.6871 19.2139 7.19944
RightHand  -2.36521 5.74568 -24.6763
LeftUpLeg  -16.4514 15.2474 0.114685
LeftLeg  34.0464 1.57843 1.51299
LeftFoot  -11.7229 0.0786503 2.40843
LeftToes  1.06246e-005 4.65855e-005 -8.185e-006
461
root  -45.42 39.0582 -15.7798 -6.50815 -25.379 0.0788269
RightUpLeg  -10.6669 -16.744 -19.8652
RightLeg  9.78774 -4.33126 0.221431
RightFoot  0.358587 -1.14158 11.1478
RightToes  0.00048216 0.542163 -0.142577
Spine  40.074 -3.55682 6.41829
Spine1  9.72282 0.52655 -6.35409
HEad  -6.84593 39.9807 -21.6537
LeftShoulder1  10.121 -15.7659 -45.7975
LeftArm  -17.1397 2.1464 -17.2946
LeftForeArm  14.4393 -17.2483 -3.83329
LeftHand  -0.25398 0.0180481 5.50724
RightShoulder  6.48955 11.9459 36.0164
RightArm  1.20247 -19.4106 27.6426
RightForeArm  -25.802 17.8559 7.44575
RightHand  -2.20392 5.19599 -24.1953
LeftUpLeg  -15.0321 17.5464 -1.09394
LeftLeg  32.6731 2.80425 2.29909
LeftFoot  -11.6725 0.0808232 3.79272
LeftToes  1.06246e-005 4.65855e-005 -8.185e-006
